<svg xmlns="http://www.w3.org/2000/svg" viewBox="0 0 167.087 242.667" xml:space="preserve"><g style="fill-rule:nonzero;clip-rule:nonzero;stroke:#000;stroke-miterlimit:4"><path style="fill:#fff;stroke-width:.5" d="M166.837 235.548c0 3.777-3.087 6.869-6.871 6.869H7.11c-3.775 0-6.861-3.092-6.861-6.87V7.12C.25 3.343 3.336.25 7.11.25h152.856c3.784 0 6.87 3.093 6.87 6.87v228.428z"/></g><text xml:space="preserve" style="font-style:normal;font-weight:400;line-height:0%;font-family:'Bitstream Vera Sans';letter-spacing:0;word-spacing:0;fill:#df0000;fill-opacity:1;stroke:none" x=".408" y="26.413"><tspan x=".408" y="26.413" style="font-style:normal;font-variant:normal;font-weight:400;font-stretch:normal;font-size:32px;line-height:1.25;font-family:Arial;-inkscape-font-specification:Arial;fill:#df0000;fill-opacity:1">1</tspan></text><path style="fill:#df0000" d="M3.243-4.725C1.126-7.59 0-10.5 0-10.5s-1.126 2.91-3.243 5.775C-5.361-1.862-8 0-8 0s2.639 1.861 4.757 4.726C-1.126 7.59 0 10.5 0 10.5s1.126-2.91 3.243-5.774C5.361 1.861 8 0 8 0S5.361-1.862 3.243-4.725z" transform="matrix(1.4769 0 0 1.4769 16.968 44.236)"/><path style="fill:#df0000" d="M3.243-4.725C1.126-7.59 0-10.5 0-10.5s-1.126 2.91-3.243 5.775C-5.361-1.862-8 0-8 0s2.639 1.861 4.757 4.726C-1.126 7.59 0 10.5 0 10.5s1.126-2.91 3.243-5.774C5.361 1.861 8 0 8 0S5.361-1.862 3.243-4.725z" transform="matrix(1.4769 0 0 1.4769 150.62 198.503)"/><path style="fill:#df0000" d="M3.243-4.725C1.126-7.59 0-10.5 0-10.5s-1.126 2.91-3.243 5.775C-5.361-1.862-8 0-8 0s2.639 1.861 4.757 4.726C-1.126 7.59 0 10.5 0 10.5s1.126-2.91 3.243-5.774C5.361 1.861 8 0 8 0S5.361-1.862 3.243-4.725z" transform="translate(54.129 210.915) scale(2.58829)"/><path style="fill:#df0000" d="M3.243-4.725C1.126-7.59 0-10.5 0-10.5s-1.126 2.91-3.243 5.775C-5.361-1.862-8 0-8 0s2.639 1.861 4.757 4.726C-1.126 7.59 0 10.5 0 10.5s1.126-2.91 3.243-5.774C5.361 1.861 8 0 8 0S5.361-1.862 3.243-4.725z" transform="translate(54.129 31.62) scale(2.58829)"/><path style="fill:#df0000" d="M3.243-4.725C1.126-7.59 0-10.5 0-10.5s-1.126 2.91-3.243 5.775C-5.361-1.862-8 0-8 0s2.639 1.861 4.757 4.726C-1.126 7.59 0 10.5 0 10.5s1.126-2.91 3.243-5.774C5.361 1.861 8 0 8 0S5.361-1.862 3.243-4.725z" transform="translate(54.129 151.183) scale(2.58829)"/><path style="fill:#df0000" d="M3.243-4.725C1.126-7.59 0-10.5 0-10.5s-1.126 2.91-3.243 5.775C-5.361-1.862-8 0-8 0s2.639 1.861 4.757 4.726C-1.126 7.59 0 10.5 0 10.5s1.126-2.91 3.243-5.774C5.361 1.861 8 0 8 0S5.361-1.862 3.243-4.725z" transform="translate(54.129 91.352) scale(2.58829)"/><path style="fill:#df0000" d="M3.243-4.725C1.126-7.59 0-10.5 0-10.5s-1.126 2.91-3.243 5.775C-5.361-1.862-8 0-8 0s2.639 1.861 4.757 4.726C-1.126 7.59 0 10.5 0 10.5s1.126-2.91 3.243-5.774C5.361 1.861 8 0 8 0S5.361-1.862 3.243-4.725z" transform="translate(112.896 210.915) scale(2.58829)"/><path style="fill:#df0000" d="M3.243-4.725C1.126-7.59 0-10.5 0-10.5s-1.126 2.91-3.243 5.775C-5.361-1.862-8 0-8 0s2.639 1.861 4.757 4.726C-1.126 7.59 0 10.5 0 10.5s1.126-2.91 3.243-5.774C5.361 1.861 8 0 8 0S5.361-1.862 3.243-4.725z" transform="translate(112.896 31.62) scale(2.58829)"/><path style="fill:#df0000" d="M3.243-4.725C1.126-7.59 0-10.5 0-10.5s-1.126 2.91-3.243 5.775C-5.361-1.862-8 0-8 0s2.639 1.861 4.757 4.726C-1.126 7.59 0 10.5 0 10.5s1.126-2.91 3.243-5.774C5.361 1.861 8 0 8 0S5.361-1.862 3.243-4.725z" transform="translate(112.896 151.183) scale(2.58829)"/><path style="fill:#df0000" d="M3.243-4.725C1.126-7.59 0-10.5 0-10.5s-1.126 2.91-3.243 5.775C-5.361-1.862-8 0-8 0s2.639 1.861 4.757 4.726C-1.126 7.59 0 10.5 0 10.5s1.126-2.91 3.243-5.774C5.361 1.861 8 0 8 0S5.361-1.862 3.243-4.725z" transform="translate(112.896 91.352) scale(2.58829)"/><path style="fill:#df0000" d="M3.243-4.725C1.126-7.59 0-10.5 0-10.5s-1.126 2.91-3.243 5.775C-5.361-1.862-8 0-8 0s2.639 1.861 4.757 4.726C-1.126 7.59 0 10.5 0 10.5s1.126-2.91 3.243-5.774C5.361 1.861 8 0 8 0S5.361-1.862 3.243-4.725z" transform="translate(83.213 61.829) scale(2.58829)"/><path style="fill:#df0000" d="M3.243-4.725C1.126-7.59 0-10.5 0-10.5s-1.126 2.91-3.243 5.775C-5.361-1.862-8 0-8 0s2.639 1.861 4.757 4.726C-1.126 7.59 0 10.5 0 10.5s1.126-2.91 3.243-5.774C5.361 1.861 8 0 8 0S5.361-1.862 3.243-4.725z" transform="translate(83.008 180.838) scale(2.58829)"/><text xml:space="preserve" style="font-style:normal;font-weight:400;line-height:0%;font-family:'Bitstream Vera Sans';letter-spacing:0;word-spacing:0;fill:#df0000;fill-opacity:1;stroke:none" x="13.216" y="26.376"><tspan x="13.216" y="26.376" style="font-style:normal;font-variant:normal;font-weight:400;font-stretch:normal;font-size:32px;line-height:1.25;font-family:Arial;-inkscape-font-specification:Arial;fill:#df0000;fill-opacity:1">0</tspan></text><text xml:space="preserve" style="font-style:normal;font-weight:400;line-height:0%;font-family:'Bitstream Vera Sans';letter-spacing:0;word-spacing:0;fill:#df0000;fill-opacity:1;stroke:none" x="-166.435" y="-215.984" transform="scale(-1)"><tspan x="-166.435" y="-215.984" style="font-style:normal;font-variant:normal;font-weight:400;font-stretch:normal;font-size:32px;line-height:1.25;font-family:Arial;-inkscape-font-specification:Arial;fill:#df0000;fill-opacity:1">1</tspan></text><text xml:space="preserve" style="font-style:normal;font-weight:400;line-height:0%;font-family:'Bitstream Vera Sans';letter-spacing:0;word-spacing:0;fill:#df0000;fill-opacity:1;stroke:none" x="-153.627" y="-216.021" transform="scale(-1)"><tspan x="-153.627" y="-216.021" style="font-style:normal;font-variant:normal;font-weight:400;font-stretch:normal;font-size:32px;line-height:1.25;font-family:Arial;-inkscape-font-specification:Arial;fill:#df0000;fill-opacity:1">0</tspan></text></svg>