<svg xmlns="http://www.w3.org/2000/svg" viewBox="0 0 416.78 634.29" version="1.0"><path style="fill-rule:evenodd;stroke:#000;stroke-width:6.1;fill:#ffffd5" d="M438.17 353.33c-31.14.48-39.21 40.77-18.54 60.02 15.49 22.33 44.71 13.93 66.15 7.29 23.84-7.57 59.33-15.3 73.1 12.73 22.78 45.11 17.73 102.48-7.8 145.41-13.45 29.13-49.13 23.65-71.47 9.32-19.92-9.07-47.8-29.58-67.13-8.61-25.7 24.96-17.62 72.19 13.59 88.9 29.33 20.23 66.85 45.84 103.41 28.51 33.69-19 48.38-57.87 62.63-91.72 23.31-65.75 35.39-140.93 9.66-207.78-13.26-35.74-52.19-53.75-88.53-52.46-25.28-.39-50.17 4.71-75.07 8.39z" transform="translate(-151.474 -85.273) scale(.87588)"/><path style="fill-rule:evenodd;fill:#c8c994" d="M566.06 432.58c-5.62-14.74-23.16-38.3-17.02-49.51 25.12 28.16 43.98 64.45 42.64 103.1-.79 38.86-6.37 79.75-26.62 113.54-6.98 12.3-47.71 32.97-26.89 4.76 22.31-26.34 43.79-56.17 45.29-92.08 2.27-27.61-4.88-55.31-17.4-79.81z" transform="translate(-151.474 -85.273) scale(.87588)"/><path style="fill-rule:evenodd;stroke:#000;stroke-width:7.8821;fill:#000" d="M852.56 430.21c91.97 6.78 185.54 22.29 277.14 4.55 16.4-4.76 32.8-13.11 26.4 11.1-1.4 149.5-3.6 299.34 8.7 448.49-15.6 21.02-48.7 16.39-72.7 20.11-71.1 2.54-143.49-.27-212.33-19.27-30.66-3.66-43.66-30.36-33.68-58.21 11.29-135.2 13.59-271.28 6.47-406.77z" transform="translate(-708.858 -210.185) scale(.87588)"/><path style="fill:#f4b133" d="M1130.5 873.56c-52.1 33.12-264.71 8.68-266.1-29.95-.87-67.36 1.69-286.02 13.43-351.83-20.05-53.98 156.77-6.89 258.67-22.46-42.6 66.06 19.8 264.83-6 404.24z" transform="translate(-708.858 -210.185) scale(.87588)"/><path style="fill-rule:evenodd;stroke:#000;stroke-width:7.625;fill:#f4ca33" d="M1140.3 436.25c-4.4.04-10.2 1.86-17.4 4.97-89.1 17.07-180.16 2.15-269.65-4.37 6.94 130.31 4.69 261.18-6.28 391.21-9.8 27 3.2 52.56 32.78 56 67.02 18.28 137.45 20.98 206.55 18.54 23.3-3.6 55.4.92 70.7-19.35-11.8-141.39-9.8-283.45-8.5-425.19 3.2-15.58.2-21.89-8.2-21.81zM908.47 478.1c.47.01.97.05 1.47.12 11.84 12.38 13.6 34.56 17.06 52.91 6.39 46.16 7.44 93.46 6.56 140.4-1.78 56.41-4.8 113.98-19.25 167.72-1.91 17.36-19.4 37.07-26.4 13.35-12.85-37.37-14.05-79.74-16.1-120.29-1.69-70.67.74-142.42 14.28-211.34 4.45-14.99 7.61-43.2 22.38-42.87zm85.62 7.81c.48 0 .97.03 1.47.09 12.04 12.15 14.24 34.32 18.04 52.6 7.3 46.03 9.2 93.32 9.2 140.28-.7 56.42-2.6 114.03-16.1 168.03-1.6 17.39-18.69 37.4-26.14 13.81-13.54-37.12-15.54-79.41-18.34-119.91-3.02-70.62-1.94-142.43 10.31-211.59 4.17-15.07 6.8-43.36 21.56-43.31zm82.71 2.97c.5-.01.9.04 1.4.09 12.3 11.97 14.8 34.06 18.9 52.28 7.9 45.93 10.5 93.18 11.2 140.13.2 56.43-.9 114.05-13.5 168.25-1.3 17.41-18.2 37.72-26 14.25-14.1-36.92-16.7-79.21-20.1-119.66-4.1-70.57-4-142.38 7.2-211.72 3.9-15.13 6.1-43.45 20.9-43.62z" transform="translate(-708.858 -210.185) scale(.87588)"/><path style="fill:#f4e382" d="M899.03 665.54c-1.05 33.54-2.53 67.78-8 99.93-.79 10.34-7.07 22.32-9.36 8.34-4.23-22-4.34-47.14-4.76-71.19-.07-41.95 1.31-84.63 6.57-125.78 1.73-9.27 3.07-26.83 8.67-25.79 4.02 6.96 4.49 19.87 5.57 30.5 1.91 26.89 1.95 54.56 1.35 82.04M988.36 673.57c-.41 33.55-1.25 67.81-6.12 100.06-.6 10.35-6.65 22.45-9.2 8.51-4.64-21.91-5.22-47.04-6.09-71.08-.87-41.95-.28-84.64 4.21-125.89 1.55-9.29 2.56-26.88 8.18-25.94 4.14 6.88 4.86 19.78 6.14 30.39 2.41 26.84 2.98 54.52 2.89 81.99M1074 676.65c.1 33.55-.3 67.82-4.6 100.14-.5 10.36-6.4 22.55-9.1 8.65-5-21.84-5.9-46.96-7.2-70.99-1.5-41.93-1.5-84.63 2.4-125.93 1.4-9.32 2.1-26.92 7.8-26.06 4.2 6.82 5.1 19.71 6.6 30.29 2.8 26.81 3.7 54.47 4.1 81.95" transform="translate(-708.858 -210.185) scale(.87588)"/><g><path style="stroke:#000;stroke-width:3.7831;fill:#000" d="M1190.2 145.54c-11 .15-21.6 5.67-29.5 14.53-11 3.57-20.7 12.28-26.3 23.84-1 1.47-1.9 2.98-2.7 4.56v.04c-3.5-.18-6.9.18-10.2 1.03-4.2-4.01-8.9-7.16-14.1-9.1-19.1-8.11-40.7 3.31-50.2 22.97-2.7 4.1-4.7 8.7-6.1 13.63-14.9.35-29.3 10.55-36.5 25.59-3.8 5.77-6.4 12.5-7.5 19.81-4 19.48 3.8 40.5 17.3 52.41-.4 1.34-.6 2.68-.8 4.06-5.6 27.07 11.5 57.13 35.3 61.56 2.8 2.38 6 4.39 9.4 5.94.7 1.15 1.4 2.27 2.2 3.35.1.32.3.64.4.96 5.1 15.34 22 25.41 38 23.07 4.2-.42 8.3-1.72 12.1-3.69.5.06 1.1.13 1.7.16 11.8 1.35 22.9-3.97 31.3-12.94 15.2.21 29.1-10.47 36.5-25.44 1.2-1.97 2.4-4.03 3.4-6.19 2.1.53 4.2.86 6.3.97 14.9 1.71 28.8-7.13 37.2-20.59 3.9-3.92 7.3-8.67 9.9-13.94 5-7.63 8.1-16.82 8.6-26.44.6.06 1.1.13 1.7.16 7.7.88 15.1-1.06 21.6-5 15.1.01 28.8-10.64 36.1-25.47 6-9.28 9.3-20.84 8.5-32.69v-.87c-.8-20.42-13.1-39.7-30-46.03-10.6-4.49-21.9-2.99-31.6 2.56-.2 0-.5.02-.7.03-4.6-5.04-10.1-8.98-16.1-11.25-4.3-1.8-8.7-2.63-13-2.62-3.6-16.58-14.6-31.03-28.8-36.35a32.83 32.83 0 0 0-13.4-2.62z" transform="translate(-844.785 -86.456) scale(.87588)"/><path style="fill:#fff" d="M1188.2 152.5c-11 .15-21.6 5.68-29.4 14.53-11 3.57-20.8 12.28-26.4 23.84-1 1.47-1.8 2.98-2.6 4.57-.1.01-.1.02-.1.03-3.4-.18-6.9.19-10.2 1.03-4.1-4.02-8.9-7.16-14-9.1-19.1-8.1-40.7 3.33-50.3 22.97a52.08 52.08 0 0 0-6.1 13.63c-14.9.35-29.2 10.56-36.5 25.56-3.8 5.78-6.4 12.51-7.5 19.84-4 19.49 3.8 40.53 17.3 52.44-.3 1.33-.6 2.69-.8 4.06-5.6 27.08 11.5 57.1 35.3 61.54 2.8 2.39 6 4.37 9.5 5.93.6 1.14 1.3 2.27 2.1 3.35.1.31.3.62.4.93 5.1 15.36 22 25.44 38 23.1 4.2-.42 8.3-1.72 12.1-3.69.6.06 1.1.13 1.7.16 11.8 1.35 23-3.97 31.3-12.94 15.2.22 29-10.46 36.4-25.41 1.3-1.97 2.5-4.05 3.5-6.22 2.1.53 4.2.89 6.3 1 14.9 1.71 28.8-7.16 37.2-20.62 3.9-3.92 7.3-8.67 9.9-13.94 5-7.63 8.1-16.81 8.6-26.44.6.06 1.1.13 1.7.16 7.7.88 15.1-1.06 21.6-5 15.2.01 28.9-10.72 36.2-25.62 5.9-9.26 9.3-20.76 8.5-32.54l-.1-.87c-.8-20.42-13.1-39.69-30-46.03-10.6-4.49-21.9-2.99-31.6 2.56-.2.01-.5.02-.7.03-4.6-5.05-10.1-8.98-16.1-11.25-4.3-1.8-8.7-2.63-13-2.62-3.6-16.58-14.6-31.03-28.8-36.35-4.4-1.86-8.9-2.68-13.4-2.62z" transform="translate(-844.785 -86.456) scale(.87588)"/><path style="stroke:#000;stroke-width:1.4677;fill:#000" d="M1288.7 526.68c-4.9 0-9.7.99-14.2 3.03-14.6 5.97-23.9 23.01-19.8 38.5.5 2.23 1.3 4.38 2.2 6.4-.3-.98-.6-2-.8-3.03-4.1-15.48 5.1-32.52 19.8-38.5 15.9-7.25 36.6-.99 45.2 14.38.6.9 1 1.83 1.5 2.78-.8-2.14-1.7-4.21-2.8-6.16-6.2-11.04-18.7-17.4-31.1-17.4z" transform="translate(-1011.211 -253.758) scale(.87588)"/><path style="stroke:#000;stroke-width:1.6977;fill:#000" d="M1329.5 393.69c-5.6 0-11.2 1.11-16.4 3.47-17 6.91-27.7 26.65-23 44.56.6 2.54 1.5 4.97 2.5 7.28-.3-1.1-.6-2.22-.9-3.37-4.7-17.91 6-37.63 22.9-44.54 18.4-8.38 42.4-1.15 52.4 16.63.6 1.02 1.1 2.08 1.6 3.16-.8-2.46-1.9-4.83-3.2-7.07-7.2-12.77-21.5-20.12-35.9-20.12zM1321.7 448.91c-5.6 0-11.2 1.14-16.4 3.5-16.9 6.91-27.6 26.62-22.9 44.53.5 2.53 1.4 4.95 2.5 7.25-.4-1.1-.7-2.21-1-3.35-4.7-17.9 6-37.62 23-44.53 12-5.5 26.5-4.31 37.8 2.19.3-.8.5-1.59.8-2.38-7-4.66-15.4-7.21-23.8-7.21z" transform="translate(-1011.211 -253.758) scale(.87588)"/><path style="stroke:#000;stroke-width:1.6977;fill:#000" d="M1379.9 434.79c-5.6 0-11.2 1.11-16.4 3.47-17 6.91-27.7 26.62-23 44.53.6 2.57 1.5 5.04 2.6 7.37-.4-1.12-.7-2.3-1-3.47-4.7-17.9 6-37.62 22.9-44.53 18.4-8.39 42.4-1.12 52.4 16.66.6 1 1.1 2.02 1.6 3.06-.9-2.43-1.9-4.78-3.2-7-7.1-12.78-21.5-20.09-35.9-20.09z" transform="translate(-1011.211 -253.758) scale(.87588)"/><path style="stroke:#000;stroke-width:1.299;fill:#000" d="M1363.4 503.68c-4.3 0-8.6.88-12.6 2.69-13 5.28-21.1 20.36-17.5 34.06.4 1.95 1 3.82 1.9 5.59-.3-.84-.6-1.71-.7-2.59-3.6-13.7 4.5-28.78 17.5-34.06 14.1-6.42 32.4-.89 40 12.71.5.78.9 1.57 1.3 2.38a47.5 47.5 0 0 0-2.4-5.38c-5.5-9.77-16.6-15.4-27.5-15.4z" transform="translate(-1011.211 -253.758) scale(.87588)"/><path style="stroke:#000;stroke-width:1.6977;fill:#000" d="M1277.7 474.46c-5.7 0-11.3 1.14-16.4 3.5-17 6.91-27.7 26.62-23 44.53.6 2.53 1.5 4.95 2.6 7.25-.4-1.1-.8-2.2-1-3.35-4.7-17.9 6-37.62 22.9-44.53 5.7-2.6 12-3.72 18.2-3.47.6-1.23 1.2-2.42 1.9-3.59-1.7-.22-3.5-.34-5.2-.34z" transform="translate(-1011.211 -253.758) scale(.87588)"/></g></svg>